<svg xmlns="http://www.w3.org/2000/svg" xmlns:xlink="http://www.w3.org/1999/xlink" width="500" zoomAndPan="magnify" viewBox="0 0 375 374.999991" height="500" preserveAspectRatio="xMidYMid meet" version="1.0"><defs><g/><clipPath id="0bc5919f68"><path d="M 262 188 L 316 188 L 316 216.25 L 262 216.25 Z M 262 188 " clip-rule="nonzero"/></clipPath><clipPath id="c96c413939"><path d="M 146.554688 84.25 L 334.804688 84.25 L 334.804688 216.25 L 146.554688 216.25 Z M 146.554688 84.25 " clip-rule="nonzero"/></clipPath></defs><rect x="-37.5" width="450" fill="#ffffff" y="-37.499999" height="449.999989" fill-opacity="1"/><rect x="-37.5" width="450" fill="#2218a7" y="-37.499999" height="449.999989" fill-opacity="1"/><g fill="#ffffff" fill-opacity="1"><g transform="translate(38.250002, 267.965464)"><g><path d="M 1.761719 -41.101562 L 42.863281 -41.101562 L 42.863281 -35.230469 L 10.511719 -5.871094 L 42.863281 -5.871094 L 42.863281 0 L 1.761719 0 L 1.761719 -5.871094 L 34.351562 -35.230469 L 1.761719 -35.230469 Z M 1.761719 -41.101562 "/></g></g></g><g fill="#ffffff" fill-opacity="1"><g transform="translate(84.596543, 267.965464)"><g><path d="M 42.277344 -32.296875 L 24.660156 -12.917969 L 24.660156 0 L 18.789062 0 L 18.789062 -12.917969 L 1.175781 -32.296875 L 1.175781 -41.101562 L 7.046875 -41.101562 L 7.046875 -34.703125 L 21.726562 -18.554688 L 36.40625 -34.703125 L 36.40625 -41.101562 L 42.277344 -41.101562 Z M 42.277344 -32.296875 "/></g></g></g><g fill="#ffffff" fill-opacity="1"><g transform="translate(128.020573, 267.965464)"><g><path d="M 8.808594 -35.230469 L 8.808594 -23.488281 L 38.167969 -23.488281 L 38.167969 -17.617188 L 8.808594 -17.617188 L 8.808594 0 L 2.9375 0 L 2.9375 -41.101562 L 44.039062 -41.101562 L 44.039062 -35.230469 Z M 8.808594 -35.230469 "/></g></g></g><g fill="#ffffff" fill-opacity="1"><g transform="translate(176.694602, 267.965464)"><g><path d="M 41.101562 -35.230469 L 23.488281 -35.230469 L 23.488281 0 L 17.617188 0 L 17.617188 -35.230469 L 0 -35.230469 L 0 -41.101562 L 41.101562 -41.101562 Z M 41.101562 -35.230469 "/></g></g></g><g fill="#ffffff" fill-opacity="1"><g transform="translate(271.22439, 270.638865)"><g><path d="M 42.140625 -13.167969 L 42.140625 -32.921875 C 42.140625 -34.722656 41.492188 -36.269531 40.199219 -37.566406 C 38.902344 -38.859375 37.355469 -39.507812 35.558594 -39.507812 L 15.804688 -39.507812 C 14.003906 -39.507812 12.457031 -38.859375 11.160156 -37.566406 C 9.867188 -36.269531 9.21875 -34.722656 9.21875 -32.921875 L 9.21875 -13.167969 C 9.21875 -11.371094 9.867188 -9.820312 11.160156 -8.527344 C 12.457031 -7.230469 14.003906 -6.585938 15.804688 -6.585938 L 35.558594 -6.585938 C 37.355469 -6.585938 38.902344 -7.230469 40.199219 -8.527344 C 41.492188 -9.820312 42.140625 -11.371094 42.140625 -13.167969 Z M 48.726562 -32.921875 L 48.726562 -13.167969 C 48.726562 -10.753906 48.132812 -8.550781 46.949219 -6.550781 C 45.761719 -4.554688 44.171875 -2.964844 42.175781 -1.777344 C 40.175781 -0.59375 37.972656 0 35.558594 0 L 15.804688 0 C 13.390625 0 11.183594 -0.59375 9.183594 -1.777344 C 7.1875 -2.964844 5.597656 -4.554688 4.410156 -6.550781 C 3.226562 -8.550781 2.632812 -10.753906 2.632812 -13.167969 L 2.632812 -32.921875 C 2.632812 -35.335938 3.226562 -37.542969 4.410156 -39.539062 C 5.597656 -41.539062 7.1875 -43.128906 9.183594 -44.3125 C 11.183594 -45.5 13.390625 -46.09375 15.804688 -46.09375 L 35.558594 -46.09375 C 37.882812 -46.09375 40.046875 -45.488281 42.042969 -44.28125 C 44.039062 -43.074219 45.652344 -41.484375 46.882812 -39.507812 C 48.113281 -37.53125 48.726562 -35.335938 48.726562 -32.921875 Z M 48.726562 -32.921875 "/></g></g></g><g fill="#fcc707" fill-opacity="1"><g transform="translate(283.379283, 260.587593)"><g><path d="M 21.640625 -6.761719 L 21.640625 -16.90625 C 21.640625 -17.828125 21.304688 -18.625 20.640625 -19.289062 C 19.976562 -19.953125 19.183594 -20.285156 18.257812 -20.285156 L 8.113281 -20.285156 C 7.191406 -20.285156 6.394531 -19.953125 5.730469 -19.289062 C 5.066406 -18.625 4.734375 -17.828125 4.734375 -16.90625 L 4.734375 -6.761719 C 4.734375 -5.839844 5.066406 -5.042969 5.730469 -4.378906 C 6.394531 -3.714844 7.191406 -3.382812 8.113281 -3.382812 L 18.257812 -3.382812 C 19.183594 -3.382812 19.976562 -3.714844 20.640625 -4.378906 C 21.304688 -5.042969 21.640625 -5.839844 21.640625 -6.761719 Z M 25.019531 -16.90625 L 25.019531 -6.761719 C 25.019531 -5.523438 24.714844 -4.390625 24.105469 -3.363281 C 23.5 -2.339844 22.679688 -1.519531 21.65625 -0.914062 C 20.628906 -0.304688 19.496094 0 18.257812 0 L 8.113281 0 C 6.875 0 5.742188 -0.304688 4.714844 -0.914062 C 3.691406 -1.519531 2.875 -2.339844 2.265625 -3.363281 C 1.65625 -4.390625 1.351562 -5.523438 1.351562 -6.761719 L 1.351562 -16.90625 C 1.351562 -18.144531 1.65625 -19.277344 2.265625 -20.304688 C 2.875 -21.328125 3.691406 -22.144531 4.714844 -22.753906 C 5.742188 -23.363281 6.875 -23.667969 8.113281 -23.667969 L 18.257812 -23.667969 C 19.453125 -23.667969 20.5625 -23.359375 21.589844 -22.738281 C 22.613281 -22.117188 23.441406 -21.300781 24.074219 -20.285156 C 24.703125 -19.273438 25.019531 -18.144531 25.019531 -16.90625 Z M 25.019531 -16.90625 "/></g></g></g><g fill="#ffffff" fill-opacity="1"><g transform="translate(220.118604, 270.631279)"><g><path d="M 42.140625 -13.167969 L 42.140625 -32.921875 C 42.140625 -34.722656 41.492188 -36.269531 40.199219 -37.566406 C 38.902344 -38.859375 37.355469 -39.507812 35.558594 -39.507812 L 15.804688 -39.507812 C 14.003906 -39.507812 12.457031 -38.859375 11.160156 -37.566406 C 9.867188 -36.269531 9.21875 -34.722656 9.21875 -32.921875 L 9.21875 -13.167969 C 9.21875 -11.371094 9.867188 -9.820312 11.160156 -8.527344 C 12.457031 -7.230469 14.003906 -6.585938 15.804688 -6.585938 L 35.558594 -6.585938 C 37.355469 -6.585938 38.902344 -7.230469 40.199219 -8.527344 C 41.492188 -9.820312 42.140625 -11.371094 42.140625 -13.167969 Z M 48.726562 -32.921875 L 48.726562 -13.167969 C 48.726562 -10.753906 48.132812 -8.550781 46.949219 -6.550781 C 45.761719 -4.554688 44.171875 -2.964844 42.175781 -1.777344 C 40.175781 -0.59375 37.972656 0 35.558594 0 L 15.804688 0 C 13.390625 0 11.183594 -0.59375 9.183594 -1.777344 C 7.1875 -2.964844 5.597656 -4.554688 4.410156 -6.550781 C 3.226562 -8.550781 2.632812 -10.753906 2.632812 -13.167969 L 2.632812 -32.921875 C 2.632812 -35.335938 3.226562 -37.542969 4.410156 -39.539062 C 5.597656 -41.539062 7.1875 -43.128906 9.183594 -44.3125 C 11.183594 -45.5 13.390625 -46.09375 15.804688 -46.09375 L 35.558594 -46.09375 C 37.882812 -46.09375 40.046875 -45.488281 42.042969 -44.28125 C 44.039062 -43.074219 45.652344 -41.484375 46.882812 -39.507812 C 48.113281 -37.53125 48.726562 -35.335938 48.726562 -32.921875 Z M 48.726562 -32.921875 "/></g></g></g><g fill="#fcc707" fill-opacity="1"><g transform="translate(231.967196, 260.580007)"><g><path d="M 21.640625 -6.761719 L 21.640625 -16.90625 C 21.640625 -17.828125 21.304688 -18.625 20.640625 -19.289062 C 19.976562 -19.953125 19.183594 -20.285156 18.257812 -20.285156 L 8.113281 -20.285156 C 7.191406 -20.285156 6.394531 -19.953125 5.730469 -19.289062 C 5.066406 -18.625 4.734375 -17.828125 4.734375 -16.90625 L 4.734375 -6.761719 C 4.734375 -5.839844 5.066406 -5.042969 5.730469 -4.378906 C 6.394531 -3.714844 7.191406 -3.382812 8.113281 -3.382812 L 18.257812 -3.382812 C 19.183594 -3.382812 19.976562 -3.714844 20.640625 -4.378906 C 21.304688 -5.042969 21.640625 -5.839844 21.640625 -6.761719 Z M 25.019531 -16.90625 L 25.019531 -6.761719 C 25.019531 -5.523438 24.714844 -4.390625 24.105469 -3.363281 C 23.5 -2.339844 22.679688 -1.519531 21.65625 -0.914062 C 20.628906 -0.304688 19.496094 0 18.257812 0 L 8.113281 0 C 6.875 0 5.742188 -0.304688 4.714844 -0.914062 C 3.691406 -1.519531 2.875 -2.339844 2.265625 -3.363281 C 1.65625 -4.390625 1.351562 -5.523438 1.351562 -6.761719 L 1.351562 -16.90625 C 1.351562 -18.144531 1.65625 -19.277344 2.265625 -20.304688 C 2.875 -21.328125 3.691406 -22.144531 4.714844 -22.753906 C 5.742188 -23.363281 6.875 -23.667969 8.113281 -23.667969 L 18.257812 -23.667969 C 19.453125 -23.667969 20.5625 -23.359375 21.589844 -22.738281 C 22.613281 -22.117188 23.441406 -21.300781 24.074219 -20.285156 C 24.703125 -19.273438 25.019531 -18.144531 25.019531 -16.90625 Z M 25.019531 -16.90625 "/></g></g></g><path fill="#fcc707" d="M 323.140625 154.527344 Z M 209.359375 154.527344 L 321.46875 154.527344 C 322.304688 154.527344 323.140625 154.527344 323.140625 154.527344 C 323.980469 153.691406 323.980469 152.855469 323.980469 152.855469 L 323.980469 135.285156 C 323.980469 134.449219 323.980469 134.449219 323.140625 133.609375 C 323.140625 133.609375 322.304688 132.773438 321.46875 132.773438 L 198.484375 132.773438 C 197.648438 132.773438 197.648438 133.609375 196.8125 133.609375 C 196.8125 134.449219 195.976562 134.449219 195.976562 135.285156 L 195.976562 138.632812 L 201.832031 138.632812 L 201.832031 149.507812 L 209.359375 149.507812 Z M 209.359375 154.527344 " fill-opacity="1" fill-rule="evenodd"/><path fill="#fcc707" d="M 262.90625 160.382812 L 315.613281 160.382812 L 315.613281 182.972656 L 262.90625 182.972656 Z M 262.90625 160.382812 " fill-opacity="1" fill-rule="evenodd"/><g clip-path="url(#0bc5919f68)"><path fill="#fcc707" d="M 315.613281 188.828125 L 262.90625 188.828125 L 262.90625 216.4375 L 312.265625 216.4375 C 313.101562 216.4375 313.9375 216.4375 314.777344 215.601562 C 314.777344 215.601562 315.613281 214.765625 315.613281 213.925781 Z M 315.613281 188.828125 " fill-opacity="1" fill-rule="evenodd"/></g><g clip-path="url(#c96c413939)"><path fill="#ffffff" d="M 325.652344 190.503906 L 325.652344 208.90625 C 325.652344 210.582031 324.816406 213.089844 323.140625 213.925781 C 322.304688 215.601562 319.796875 216.4375 317.285156 216.4375 L 213.542969 216.4375 C 211.035156 216.4375 208.523438 215.601562 207.6875 213.925781 C 206.015625 213.089844 205.175781 210.582031 205.175781 208.90625 L 205.175781 198.867188 L 163.347656 198.867188 C 161.671875 198.867188 160 198.03125 160 196.359375 C 160 194.683594 161.671875 193.847656 163.347656 193.847656 L 210.199219 193.847656 L 210.199219 208.90625 C 210.199219 209.746094 210.199219 209.746094 211.035156 210.582031 C 211.871094 211.417969 212.707031 211.417969 213.542969 211.417969 L 262.90625 211.417969 L 262.90625 182.972656 L 155.816406 182.972656 C 154.144531 182.972656 153.304688 182.136719 153.304688 180.460938 C 153.304688 179.625 154.144531 177.953125 155.816406 177.953125 L 262.90625 177.953125 L 262.90625 154.527344 L 210.199219 154.527344 L 210.199219 167.914062 L 149.125 167.914062 C 147.449219 167.914062 146.613281 166.238281 146.613281 165.402344 C 146.613281 163.730469 147.449219 162.894531 149.125 162.894531 L 205.175781 162.894531 L 205.175781 154.527344 L 203.503906 154.527344 C 201.832031 154.527344 200.15625 153.691406 198.484375 152.855469 C 196.8125 151.179688 195.976562 149.507812 195.976562 146.996094 L 195.976562 130.265625 C 195.976562 127.753906 196.8125 126.082031 198.484375 125.246094 C 200.15625 123.570312 201.832031 122.734375 203.503906 122.734375 L 247.007812 122.734375 C 232.785156 118.550781 226.09375 111.859375 225.257812 104.328125 C 223.582031 98.472656 225.257812 92.617188 229.441406 89.269531 C 232.785156 85.085938 238.644531 83.414062 244.5 85.085938 C 252.027344 86.761719 258.722656 93.453125 262.90625 108.511719 L 265.414062 116.042969 L 267.925781 108.511719 C 272.109375 93.453125 278.800781 86.761719 286.332031 85.085938 C 292.1875 83.414062 298.042969 85.085938 301.390625 89.269531 C 305.574219 92.617188 307.246094 98.472656 305.574219 104.328125 C 303.898438 111.859375 298.042969 118.550781 283.820312 122.734375 L 327.324219 122.734375 C 329 122.734375 330.671875 123.570312 332.34375 125.246094 C 334.019531 126.082031 334.855469 127.753906 334.855469 130.265625 L 334.855469 146.996094 C 334.855469 149.507812 334.019531 151.179688 332.34375 152.855469 C 330.671875 153.691406 329 154.527344 327.324219 154.527344 L 325.652344 154.527344 Z M 267.925781 177.953125 L 320.632812 177.953125 L 320.632812 154.527344 L 267.925781 154.527344 Z M 320.632812 182.972656 L 267.925781 182.972656 L 267.925781 211.417969 L 317.285156 211.417969 C 318.121094 211.417969 318.960938 211.417969 319.796875 210.582031 C 320.632812 209.746094 320.632812 209.746094 320.632812 208.90625 Z M 203.503906 127.753906 C 203.503906 127.753906 202.667969 128.589844 201.832031 128.589844 C 201.832031 128.589844 201.832031 129.429688 201.832031 130.265625 L 201.832031 146.996094 C 201.832031 147.832031 201.832031 148.671875 201.832031 148.671875 C 202.667969 149.507812 203.503906 149.507812 203.503906 149.507812 L 327.324219 149.507812 C 327.324219 149.507812 328.160156 149.507812 329 148.671875 C 329 148.671875 329 147.832031 329 146.996094 L 329 130.265625 C 329 129.429688 329 128.589844 329 128.589844 C 328.160156 128.589844 327.324219 127.753906 327.324219 127.753906 C 285.492188 127.753906 245.335938 127.753906 203.503906 127.753906 Z M 272.945312 109.347656 L 268.761719 121.898438 L 282.148438 117.714844 C 294.695312 114.367188 299.714844 108.511719 300.554688 103.492188 C 302.226562 99.308594 300.554688 95.125 298.042969 92.617188 C 295.535156 90.105469 291.351562 88.433594 287.167969 90.105469 C 282.148438 90.941406 276.292969 96.800781 272.945312 109.347656 Z M 261.230469 121.898438 L 257.886719 109.347656 C 254.539062 96.800781 248.683594 90.941406 243.664062 90.105469 C 239.480469 88.433594 235.296875 90.105469 232.785156 92.617188 C 230.277344 95.125 228.601562 99.308594 230.277344 103.492188 C 231.113281 108.511719 236.132812 114.367188 248.683594 117.714844 Z M 261.230469 121.898438 " fill-opacity="1" fill-rule="nonzero"/></g></svg>